<mxfile host="app.diagrams.net" agent="Mozilla/5.0 (Macintosh; Intel Mac OS X 10_15_7) AppleWebKit/537.36 (KHTML, like Gecko) Chrome/132.0.0.0 Safari/537.36" version="26.0.13">
  <diagram name="Page-1" id="C3QPhdv3VJ-BmDOPRa8w">
    <mxGraphModel dx="1411" dy="675" grid="1" gridSize="10" guides="1" tooltips="1" connect="1" arrows="1" fold="1" page="1" pageScale="1" pageWidth="827" pageHeight="1169" math="0" shadow="0">
      <root>
        <mxCell id="0" />
        <mxCell id="1" parent="0" />
        <mxCell id="ChbvydbMhRh8XAtrJr__-15" value="Extractor&lt;div&gt;&lt;br&gt;&lt;/div&gt;&lt;div&gt;&lt;br&gt;&lt;/div&gt;&lt;div&gt;&lt;br&gt;&lt;/div&gt;&lt;div&gt;&lt;br&gt;&lt;/div&gt;&lt;div&gt;&lt;br&gt;&lt;/div&gt;&lt;div&gt;&lt;br&gt;&lt;/div&gt;" style="whiteSpace=wrap;html=1;aspect=fixed;" vertex="1" parent="1">
          <mxGeometry x="160" y="540" width="130" height="130" as="geometry" />
        </mxCell>
        <mxCell id="ChbvydbMhRh8XAtrJr__-16" value="Validator&amp;nbsp; &amp;nbsp;&amp;nbsp;&lt;div&gt;&lt;br&gt;&lt;/div&gt;&lt;div&gt;&lt;br&gt;&lt;/div&gt;&lt;div&gt;&lt;br&gt;&lt;/div&gt;&lt;div&gt;&lt;br&gt;&lt;/div&gt;&lt;div&gt;&lt;br&gt;&lt;/div&gt;&lt;div&gt;&lt;br&gt;&lt;/div&gt;&lt;div&gt;&lt;br&gt;&lt;/div&gt;&lt;div&gt;&lt;br&gt;&lt;/div&gt;&lt;div&gt;&lt;br&gt;&lt;/div&gt;&lt;div&gt;&lt;br&gt;&lt;/div&gt;&lt;div&gt;&lt;br&gt;&lt;/div&gt;&lt;div&gt;&lt;br&gt;&lt;/div&gt;&lt;div&gt;&lt;br&gt;&lt;/div&gt;&lt;div&gt;&lt;br&gt;&lt;/div&gt;&lt;div&gt;&lt;br&gt;&lt;/div&gt;&lt;div&gt;&lt;br&gt;&lt;/div&gt;&lt;div&gt;&lt;br&gt;&lt;/div&gt;&lt;div&gt;&lt;br&gt;&lt;/div&gt;&lt;div&gt;&lt;br&gt;&lt;/div&gt;" style="whiteSpace=wrap;html=1;aspect=fixed;align=right;" vertex="1" parent="1">
          <mxGeometry x="580" y="460" width="300" height="300" as="geometry" />
        </mxCell>
        <mxCell id="ChbvydbMhRh8XAtrJr__-17" value="Extraction Interface" style="whiteSpace=wrap;html=1;aspect=fixed;" vertex="1" parent="1">
          <mxGeometry x="430" y="290" width="80" height="80" as="geometry" />
        </mxCell>
        <mxCell id="ChbvydbMhRh8XAtrJr__-18" value="Structural Compliance&lt;br&gt;Validator" style="rounded=1;whiteSpace=wrap;html=1;" vertex="1" parent="1">
          <mxGeometry x="620" y="470" width="120" height="60" as="geometry" />
        </mxCell>
        <mxCell id="ChbvydbMhRh8XAtrJr__-20" value="Entity Quality Validator" style="rounded=1;whiteSpace=wrap;html=1;" vertex="1" parent="1">
          <mxGeometry x="620" y="580" width="120" height="60" as="geometry" />
        </mxCell>
        <mxCell id="ChbvydbMhRh8XAtrJr__-21" value="Entity Completeness Validator" style="rounded=1;whiteSpace=wrap;html=1;" vertex="1" parent="1">
          <mxGeometry x="620" y="690" width="120" height="60" as="geometry" />
        </mxCell>
        <mxCell id="ChbvydbMhRh8XAtrJr__-24" value="" style="edgeStyle=none;orthogonalLoop=1;jettySize=auto;html=1;rounded=0;exitX=0;exitY=0.5;exitDx=0;exitDy=0;entryX=0.5;entryY=0;entryDx=0;entryDy=0;" edge="1" parent="1" source="ChbvydbMhRh8XAtrJr__-17" target="ChbvydbMhRh8XAtrJr__-15">
          <mxGeometry width="80" relative="1" as="geometry">
            <mxPoint x="240" y="400" as="sourcePoint" />
            <mxPoint x="320" y="400" as="targetPoint" />
            <Array as="points">
              <mxPoint x="225" y="330" />
            </Array>
          </mxGeometry>
        </mxCell>
        <mxCell id="ChbvydbMhRh8XAtrJr__-28" value="" style="edgeStyle=none;orthogonalLoop=1;jettySize=auto;html=1;rounded=0;entryX=1.01;entryY=0.384;entryDx=0;entryDy=0;exitX=0;exitY=0.75;exitDx=0;exitDy=0;entryPerimeter=0;" edge="1" parent="1" source="ChbvydbMhRh8XAtrJr__-18" target="ChbvydbMhRh8XAtrJr__-15">
          <mxGeometry width="80" relative="1" as="geometry">
            <mxPoint x="710" y="490" as="sourcePoint" />
            <mxPoint x="790" y="490" as="targetPoint" />
            <Array as="points">
              <mxPoint x="480" y="590" />
            </Array>
          </mxGeometry>
        </mxCell>
        <mxCell id="ChbvydbMhRh8XAtrJr__-44" value="s&lt;span style=&quot;background-color: light-dark(#ffffff, var(--ge-dark-color, #121212)); color: light-dark(rgb(0, 0, 0), rgb(255, 255, 255));&quot;&gt;end failed&lt;/span&gt;&lt;div&gt;&lt;span style=&quot;background-color: light-dark(#ffffff, var(--ge-dark-color, #121212)); color: light-dark(rgb(0, 0, 0), rgb(255, 255, 255));&quot;&gt;results to&lt;/span&gt;&lt;/div&gt;" style="edgeLabel;html=1;align=center;verticalAlign=middle;resizable=0;points=[];" vertex="1" connectable="0" parent="ChbvydbMhRh8XAtrJr__-28">
          <mxGeometry x="-0.0119" relative="1" as="geometry">
            <mxPoint x="-75" as="offset" />
          </mxGeometry>
        </mxCell>
        <mxCell id="ChbvydbMhRh8XAtrJr__-29" value="" style="edgeStyle=none;orthogonalLoop=1;jettySize=auto;html=1;rounded=0;entryX=-0.001;entryY=0.316;entryDx=0;entryDy=0;entryPerimeter=0;" edge="1" parent="1" target="ChbvydbMhRh8XAtrJr__-18">
          <mxGeometry width="80" relative="1" as="geometry">
            <mxPoint x="291" y="550" as="sourcePoint" />
            <mxPoint x="790" y="490" as="targetPoint" />
            <Array as="points">
              <mxPoint x="400" y="490" />
            </Array>
          </mxGeometry>
        </mxCell>
        <mxCell id="ChbvydbMhRh8XAtrJr__-43" value="sends results to" style="edgeLabel;html=1;align=center;verticalAlign=middle;resizable=0;points=[];" vertex="1" connectable="0" parent="ChbvydbMhRh8XAtrJr__-29">
          <mxGeometry x="0.0087" relative="1" as="geometry">
            <mxPoint x="60" y="1" as="offset" />
          </mxGeometry>
        </mxCell>
        <mxCell id="ChbvydbMhRh8XAtrJr__-30" value="" style="edgeStyle=none;orthogonalLoop=1;jettySize=auto;html=1;rounded=0;exitX=0.5;exitY=1;exitDx=0;exitDy=0;entryX=0.5;entryY=0;entryDx=0;entryDy=0;" edge="1" parent="1" source="ChbvydbMhRh8XAtrJr__-18" target="ChbvydbMhRh8XAtrJr__-20">
          <mxGeometry width="80" relative="1" as="geometry">
            <mxPoint x="710" y="490" as="sourcePoint" />
            <mxPoint x="790" y="490" as="targetPoint" />
            <Array as="points" />
          </mxGeometry>
        </mxCell>
        <mxCell id="ChbvydbMhRh8XAtrJr__-49" value="promotes&lt;div&gt;results to&lt;/div&gt;" style="edgeLabel;html=1;align=center;verticalAlign=middle;resizable=0;points=[];" vertex="1" connectable="0" parent="ChbvydbMhRh8XAtrJr__-30">
          <mxGeometry y="-1" relative="1" as="geometry">
            <mxPoint x="1" y="-5" as="offset" />
          </mxGeometry>
        </mxCell>
        <mxCell id="ChbvydbMhRh8XAtrJr__-31" value="" style="edgeStyle=none;orthogonalLoop=1;jettySize=auto;html=1;rounded=0;exitX=0;exitY=0.5;exitDx=0;exitDy=0;entryX=1.008;entryY=0.691;entryDx=0;entryDy=0;entryPerimeter=0;" edge="1" parent="1" source="ChbvydbMhRh8XAtrJr__-20" target="ChbvydbMhRh8XAtrJr__-15">
          <mxGeometry width="80" relative="1" as="geometry">
            <mxPoint x="710" y="490" as="sourcePoint" />
            <mxPoint x="790" y="490" as="targetPoint" />
            <Array as="points">
              <mxPoint x="530" y="630" />
            </Array>
          </mxGeometry>
        </mxCell>
        <mxCell id="ChbvydbMhRh8XAtrJr__-42" value="sends failed&lt;div&gt;results to&lt;/div&gt;" style="edgeLabel;html=1;align=center;verticalAlign=middle;resizable=0;points=[];" vertex="1" connectable="0" parent="ChbvydbMhRh8XAtrJr__-31">
          <mxGeometry x="0.1692" y="2" relative="1" as="geometry">
            <mxPoint as="offset" />
          </mxGeometry>
        </mxCell>
        <mxCell id="ChbvydbMhRh8XAtrJr__-32" value="" style="edgeStyle=none;orthogonalLoop=1;jettySize=auto;html=1;rounded=0;exitX=0.5;exitY=1;exitDx=0;exitDy=0;entryX=0.5;entryY=0;entryDx=0;entryDy=0;" edge="1" parent="1" source="ChbvydbMhRh8XAtrJr__-20" target="ChbvydbMhRh8XAtrJr__-21">
          <mxGeometry width="80" relative="1" as="geometry">
            <mxPoint x="710" y="490" as="sourcePoint" />
            <mxPoint x="790" y="490" as="targetPoint" />
            <Array as="points" />
          </mxGeometry>
        </mxCell>
        <mxCell id="ChbvydbMhRh8XAtrJr__-50" value="promotes&amp;nbsp;&lt;div&gt;results to&lt;/div&gt;" style="edgeLabel;html=1;align=center;verticalAlign=middle;resizable=0;points=[];" vertex="1" connectable="0" parent="ChbvydbMhRh8XAtrJr__-32">
          <mxGeometry x="-0.0667" y="2" relative="1" as="geometry">
            <mxPoint as="offset" />
          </mxGeometry>
        </mxCell>
        <mxCell id="ChbvydbMhRh8XAtrJr__-33" value="" style="edgeStyle=none;orthogonalLoop=1;jettySize=auto;html=1;rounded=0;exitX=0;exitY=0.5;exitDx=0;exitDy=0;entryX=0.999;entryY=0.924;entryDx=0;entryDy=0;entryPerimeter=0;" edge="1" parent="1" source="ChbvydbMhRh8XAtrJr__-21" target="ChbvydbMhRh8XAtrJr__-15">
          <mxGeometry width="80" relative="1" as="geometry">
            <mxPoint x="710" y="490" as="sourcePoint" />
            <mxPoint x="790" y="490" as="targetPoint" />
            <Array as="points" />
          </mxGeometry>
        </mxCell>
        <mxCell id="ChbvydbMhRh8XAtrJr__-45" value="sends failed&lt;div&gt;results to&lt;/div&gt;" style="edgeLabel;html=1;align=center;verticalAlign=middle;resizable=0;points=[];" vertex="1" connectable="0" parent="ChbvydbMhRh8XAtrJr__-33">
          <mxGeometry x="-0.1111" y="2" relative="1" as="geometry">
            <mxPoint x="-23" y="-5" as="offset" />
          </mxGeometry>
        </mxCell>
        <mxCell id="ChbvydbMhRh8XAtrJr__-34" value="" style="edgeStyle=none;orthogonalLoop=1;jettySize=auto;html=1;rounded=0;exitX=0.5;exitY=1;exitDx=0;exitDy=0;entryX=1;entryY=0.5;entryDx=0;entryDy=0;" edge="1" parent="1" source="ChbvydbMhRh8XAtrJr__-21" target="ChbvydbMhRh8XAtrJr__-17">
          <mxGeometry width="80" relative="1" as="geometry">
            <mxPoint x="710" y="490" as="sourcePoint" />
            <mxPoint x="790" y="490" as="targetPoint" />
            <Array as="points">
              <mxPoint x="680" y="770" />
              <mxPoint x="850" y="770" />
              <mxPoint x="910" y="770" />
              <mxPoint x="910" y="540" />
              <mxPoint x="910" y="330" />
            </Array>
          </mxGeometry>
        </mxCell>
        <mxCell id="ChbvydbMhRh8XAtrJr__-48" value="Publish&lt;div&gt;results&lt;/div&gt;" style="edgeLabel;html=1;align=center;verticalAlign=middle;resizable=0;points=[];" vertex="1" connectable="0" parent="ChbvydbMhRh8XAtrJr__-34">
          <mxGeometry x="-0.0468" y="-3" relative="1" as="geometry">
            <mxPoint as="offset" />
          </mxGeometry>
        </mxCell>
        <mxCell id="ChbvydbMhRh8XAtrJr__-35" value="" style="edgeStyle=none;orthogonalLoop=1;jettySize=auto;html=1;rounded=0;exitX=0.75;exitY=0;exitDx=0;exitDy=0;" edge="1" parent="1" source="ChbvydbMhRh8XAtrJr__-17">
          <mxGeometry width="80" relative="1" as="geometry">
            <mxPoint x="620" y="450" as="sourcePoint" />
            <mxPoint x="490" y="240" as="targetPoint" />
            <Array as="points" />
          </mxGeometry>
        </mxCell>
        <mxCell id="ChbvydbMhRh8XAtrJr__-36" value="" style="edgeStyle=none;orthogonalLoop=1;jettySize=auto;html=1;rounded=0;entryX=0.25;entryY=0;entryDx=0;entryDy=0;" edge="1" parent="1" target="ChbvydbMhRh8XAtrJr__-17">
          <mxGeometry width="80" relative="1" as="geometry">
            <mxPoint x="450" y="240" as="sourcePoint" />
            <mxPoint x="700" y="450" as="targetPoint" />
            <Array as="points" />
          </mxGeometry>
        </mxCell>
        <mxCell id="ChbvydbMhRh8XAtrJr__-37" value="" style="shape=actor;whiteSpace=wrap;html=1;" vertex="1" parent="1">
          <mxGeometry x="450" y="180" width="40" height="50" as="geometry" />
        </mxCell>
        <mxCell id="ChbvydbMhRh8XAtrJr__-38" value="" style="shape=image;html=1;verticalAlign=top;verticalLabelPosition=bottom;labelBackgroundColor=#ffffff;imageAspect=0;aspect=fixed;image=https://cdn0.iconfinder.com/data/icons/phosphor-duotone-vol-3/256/robot-duotone-128.png" vertex="1" parent="1">
          <mxGeometry x="191" y="585" width="68" height="68" as="geometry" />
        </mxCell>
        <mxCell id="ChbvydbMhRh8XAtrJr__-46" value="" style="edgeStyle=none;orthogonalLoop=1;jettySize=auto;html=1;rounded=0;exitX=0.75;exitY=1;exitDx=0;exitDy=0;entryX=1;entryY=0.5;entryDx=0;entryDy=0;strokeColor=light-dark(#FF0000,#FFFFFF);" edge="1" parent="1" source="ChbvydbMhRh8XAtrJr__-37" target="ChbvydbMhRh8XAtrJr__-20">
          <mxGeometry width="80" relative="1" as="geometry">
            <mxPoint x="640" y="470" as="sourcePoint" />
            <mxPoint x="720" y="470" as="targetPoint" />
            <Array as="points">
              <mxPoint x="480" y="420" />
              <mxPoint x="780" y="420" />
              <mxPoint x="780" y="610" />
            </Array>
          </mxGeometry>
        </mxCell>
        <mxCell id="ChbvydbMhRh8XAtrJr__-47" value="Defines&amp;nbsp;&lt;div&gt;tests for&lt;/div&gt;" style="edgeLabel;html=1;align=center;verticalAlign=middle;resizable=0;points=[];" vertex="1" connectable="0" parent="ChbvydbMhRh8XAtrJr__-46">
          <mxGeometry x="-0.0164" relative="1" as="geometry">
            <mxPoint x="-44" as="offset" />
          </mxGeometry>
        </mxCell>
        <mxCell id="ChbvydbMhRh8XAtrJr__-51" value="" style="edgeStyle=none;orthogonalLoop=1;jettySize=auto;html=1;rounded=0;exitX=0.25;exitY=1;exitDx=0;exitDy=0;entryX=0;entryY=0.5;entryDx=0;entryDy=0;strokeColor=light-dark(#FF0000,#FFFFFF);" edge="1" parent="1" source="ChbvydbMhRh8XAtrJr__-37" target="ChbvydbMhRh8XAtrJr__-15">
          <mxGeometry width="80" relative="1" as="geometry">
            <mxPoint x="280" y="240" as="sourcePoint" />
            <mxPoint x="360" y="240" as="targetPoint" />
            <Array as="points">
              <mxPoint x="460" y="420" />
              <mxPoint x="120" y="420" />
              <mxPoint x="120" y="605" />
            </Array>
          </mxGeometry>
        </mxCell>
        <mxCell id="ChbvydbMhRh8XAtrJr__-52" value="Defines&lt;div&gt;entities for&lt;/div&gt;" style="edgeLabel;html=1;align=center;verticalAlign=middle;resizable=0;points=[];" vertex="1" connectable="0" parent="ChbvydbMhRh8XAtrJr__-51">
          <mxGeometry x="0.2785" relative="1" as="geometry">
            <mxPoint x="173" as="offset" />
          </mxGeometry>
        </mxCell>
      </root>
    </mxGraphModel>
  </diagram>
</mxfile>
